# xmcd
#
# Track frame offsets: 
#        150
#        10700
#        23657
#        35647
#        45487
#        55515
#        64875
#        75272
#        86870
#        94599
#        105516
#        113830
#        123546
#        136827
#        146171
#        156552
#        168287
#        178232
#        190658
#        201860
#
# Disc length: 2859 seconds
#
# Revision: 0
# Processed by: cddbd v1.5.2PL0 Copyright (c) Steve Scherf et al.
# Submitted via: ExactAudioCopyFreeDBPlugin 1.0
#
DISCID=070b2914
DTITLE=Ike Turner - The Bad Man:  Rare and Unreleased Ike Turner Produce
DTITLE=d Recordings, 1962-1965
DYEAR=2006
DGENRE=Rhythm and Blues
TTITLE0=Ike and Dee Dee Johnson - The Drag
TTITLE1=Robbie Montgomery and The Ike-ettes - Crazy in Love
TTITLE2=Ike and Tina - So Fine
TTITLE3=The Ikettes - Prisoner in Love
TTITLE4=Ike and Tina Turner - If I Can't Be First
TTITLE5=Ike and Tina Turner - Here's Your Heart
TTITLE6=Robbie Montgomery and The Ike-ettes - Pee Wee
TTITLE7=Ike and Tina and The Ikettes - So Blue Over You
TTITLE8=Ike and Tina Turner - I'm Going Back Home
TTITLE9=Fontella Bass - My Good Loving
TTITLE10=The Ikettes - Those Words
TTITLE11=Vernon Guy - Anything to Make it with You
TTITLE12=Ike and Dee Dee Johnson - You Can't Have Your Cake (And Eat It 
TTITLE12=Too)
TTITLE13=The Turnabouts - Gettin' Away
TTITLE14=The Turnabouts - Cott'n Pick'n
TTITLE15=Fontella Bass - I Love the Man
TTITLE16=Bobby John - The Bad Man
TTITLE17=Bobby John - Lonely Soldier
TTITLE18=Jimmy Thomas - I Love Nobody But You
TTITLE19=George Jackson - Won't Nobody Cha-Cha With Me
EXTD=Release date: 2006-09-12
EXTT0=
EXTT1=
EXTT2=
EXTT3=
EXTT4=
EXTT5=
EXTT6=
EXTT7=
EXTT8=
EXTT9=
EXTT10=
EXTT11=
EXTT12=
EXTT13=
EXTT14=
EXTT15=
EXTT16=
EXTT17=
EXTT18=
EXTT19=
PLAYORDER=
